<svg width="32" height="480" viewBox="0 0 32 480" xmlns="http://www.w3.org/2000/svg"><title>sprite-core</title><g fill="none" fill-rule="evenodd"><g transform="translate(3 232)" stroke="#0BADF2" stroke-width="2"><path d="M26 8s-5.822 8-13 8S0 8 0 8s5.822-8 13-8 13 8 13 8z"/><ellipse cx="13" cy="8" rx="3.957" ry="4"/></g><g stroke="#0BADF2" stroke-width="2" stroke-linecap="square"><path d="M4.48 266h23.04M4.48 272h23.04M4.48 278h23.04"/></g><g transform="translate(7 293)" stroke="#0BADF2" stroke-width="2"><ellipse cx="9.489" cy="4.851" rx="4.085" ry="4.085"/><path d="M.298 22.213a9.191 9.191 0 1 1 18.383 0"/></g><path d="M7 76l9 8.625L25 76M7 117l9-8.625L25 117M21 135l-8.625 9L21 153M12 185l8.625-9L12 167" stroke-width="2" stroke="#0BADF2"/><g transform="translate(7 359)" stroke="#0BADF2"><circle stroke-width="2" cx="9.5" cy="9.5" r="9.092"/><path d="M9.744 3.78v6.115H5"/></g><g stroke="#0BADF2" stroke-width="2"><path d="M7 345l18-18M7 327l18 18"/></g><path stroke="#0BADF2" stroke-width="1.333" d="M22 26L11 15.5 22 5M11 58l11-10.5L11 37"/><path fill="#FFBE3F" d="M16.5 387l3.246 10L30 396.987l-8.248 5.494L24.844 412l-8.344-5.806L8.156 412l3.092-9.519L3 396.987l10.254.013z"/><path d="M26.497 207.122l-19.286-8.82c-.36-.15-.514-.302-.925-.302-.566 0-1.286.353-1.286 1.008v18.144c0 .655.72 1.008 1.286 1.008.411 0 .565-.151.925-.302l19.286-8.82c.412-.202.823-.404.823-.958 0-.554-.411-.756-.823-.958z" fill="#0CA6E8"/><path stroke="#0BADF2" stroke-width="4" d="M8 460l8 8 8-8"/><path d="M5 433.08l6.391 7.06L26 424" stroke-width="2.667" stroke="#80D65E"/></g></svg>