<svg width="24" height="16" viewBox="0 0 24 16" xmlns="http://www.w3.org/2000/svg" xmlns:xlink="http://www.w3.org/1999/xlink"><title>flag-au</title><defs><path id="d" d="M0 0h24v16H0z"/><path id="f" d="M0 0h12v8H0z"/><path id="a" d="M0 .5L11.5 8h.5v-.5L.5 0H0z"/><mask id="h" x="-.5" y="-.5" width="13" height="9"><path fill="#fff" d="M-.5-.5h13v9h-13z"/><use xlink:href="#a"/></mask><path id="b" d="M0 .5L11.5 8h.5v-.5L.5 0H0z"/><mask id="i" x="-.5" y="-.5" width="13" height="9"><path fill="#fff" d="M-.5-.5h13v9h-13z"/><use xlink:href="#b"/></mask><path d="M6.857 3.265V0h-1.47v3.265H-.124v1.47h5.513V8h1.47V4.735h5.267v-1.47H6.857z" id="c"/><mask id="j" x="-.5" y="-.5" width="13.25" height="9"><path fill="#fff" d="M-.625-.5h13.25v9H-.625z"/><use xlink:href="#c"/></mask></defs><g fill="none" fill-rule="evenodd"><mask id="e" fill="#fff"><use xlink:href="#d"/></mask><use fill="#006DA0" xlink:href="#d"/><path d="M11.65 13.04l-1.447.111.199 1.279-1-.936-1 .936.199-1.279-1.447-.111 1.249-.66-.804-1.074 1.358.457.445-1.229.444 1.229 1.358-.457-.803 1.075m7.437 1.837l-.349-.467.59.199.193-.534.193.534.59-.199-.349.467.543.286-.629.049.087.555-.435-.406-.435.406.087-.555-.628-.049m.542-8.595l-.349-.467.59.198.193-.533.193.533.59-.198-.349.467.543.286-.629.049.087.555-.435-.406-.435.406.087-.555-.628-.049m-2.963 3.09l-.35-.468.59.199.194-.534.193.534.59-.199-.35.467.543.287-.628.048.086.556-.434-.407-.435.407.087-.556-.629-.048m7.165-1.118l-.35-.467.59.2.192-.535.194.534.59-.199-.35.467.543.287-.628.048.086.556-.435-.407-.434.407.086-.556-.627-.048m-.738 2.162l-.343.189.096-.349-.308-.232.403-.026.152-.332.153.332.403.026-.309.232.097.349" fill="#FFF" mask="url(#e)"/><g mask="url(#e)"><mask id="g" fill="#fff"><use xlink:href="#f"/></mask><use fill="#006DA0" xlink:href="#f"/><g mask="url(#g)"><g transform="matrix(1 0 0 -1 0 8)"><use fill="#D93D2B" xlink:href="#a"/><use stroke="#FFF" mask="url(#h)" stroke-linecap="round" stroke-linejoin="round" xlink:href="#a"/></g><use fill="#D93D2B" xlink:href="#b"/><use stroke="#FFF" mask="url(#i)" stroke-linecap="round" stroke-linejoin="round" xlink:href="#b"/></g><g mask="url(#g)"><use fill="#C7152A" xlink:href="#c"/><use stroke="#FFF" mask="url(#j)" xlink:href="#c"/></g><path d="M6.857 3.265V0h-1.47v3.265H-.124v1.47h5.513V8h1.47V4.735h5.267v-1.47H6.857z" fill="#E84550" mask="url(#g)"/></g></g></svg>