<svg xmlns="http://www.w3.org/2000/svg" width="32" height="480" viewBox="0 0 32 480"><title>
    sprite-core
</title><g fill="none" fill-rule="evenodd"><g transform="translate(3 232)" stroke="#0BADF2" stroke-width="2"><path d="M26 8s-5.8 8-13 8S0 8 0 8s5.8-8 13-8 13 8 13 8z"/></g><g transform="translate(7 293)" stroke="#0BADF2" stroke-width="2"><path d="M0.3 22.2a9.2 9.2 0 1 1 18.4 0"/></g><path d="M7 76l9 8.6L25 76M7 117l9-8.6L25 117M21 135l-8.6 9L21 153M12 185l8.6-9L12 167" stroke-width="2" stroke="#0BADF2"/><g transform="translate(7 359)" stroke="#0BADF2"><path d="M9.7 3.8v6.1H5"/></g><g stroke="#0BADF2" stroke-width="2"><path d="M7 345l18-18M7 327l18 18"/></g><path stroke="#0BADF2" stroke-width="1.3" d="M22 26L11 15.5 22 5M11 58l11-10.5L11 37M8 460l8 8 8-8M5 433.1l6.4 7.1L26 424"/></g></svg>